<svg viewBox="0 0 18 18" role="presentation" focusable="false" xmlns:svg="http://www.w3.org/2000/svg" xmlns:xlink="http://www.w3.org/1999/xlink" aria-hidden="true"><g><defs></defs><path d="M0 5.6h18v10.035a.6.6 0 0 1-.6.6H.6a.6.6 0 0 1-.6-.6V5.6z" fill="url(#b81467a7-8040-434c-8e85-3b06adb1a444)"></path><rect x="1.309" y="6.657" width="15.527" height="8.514" rx=".6" fill="#9cebff"></rect><path d="M.6 1.764h16.8a.6.6 0 0 1 .6.6V5.6H0V2.365a.6.6 0 0 1 .6-.601z" fill="#198ab3"></path><path d="M4.258 10.795l.318-.317 2.53 2.537a.145.145 0 0 1 0 .205l-.318.317a.145.145 0 0 1-.205 0l-2.326-2.332a.29.29 0 0 1 .001-.41z" opacity=".8" class="msportalfx-svg-c01"></path><path d="M4.576 11.527l-.32-.321a.29.29 0 0 1 0-.41l2.37-2.363a.145.145 0 0 1 .204 0l.32.322a.145.145 0 0 1 0 .205l-2.574 2.567z" class="msportalfx-svg-c01"></path><path d="M11.083 13.538l-.322-.321a.145.145 0 0 1 0-.205l2.53-2.537.321.32a.29.29 0 0 1 0 .41l-2.324 2.332a.145.145 0 0 1-.205 0z" opacity=".8" class="msportalfx-svg-c01"></path><path d="M10.718 8.755l.32-.321a.145.145 0 0 1 .205 0l2.37 2.362a.29.29 0 0 1 0 .41l-.32.322-2.575-2.568a.145.145 0 0 1 0-.205z" class="msportalfx-svg-c01"></path><rect x="8.606" y="7.387" width=".745" height="7.062" rx=".104" transform="rotate(17.752 8.98 10.917)" class="msportalfx-svg-c01"></rect><path d="M3.166 3.847a.76.76 0 1 1-.76-.76.76.76 0 0 1 .76.76zm1.634-.76a.76.76 0 1 0 .76.76.76.76 0 0 0-.76-.76zm2.393 0a.76.76 0 1 0 .76.76.76.76 0 0 0-.762-.76z" class="msportalfx-svg-c01"></path></g></svg>